PathFileType	4	(X/Y/Z)	RBDS021\RBDS021runT25.trc
DataRate	CameraRate	NumFrames	NumMarkers	Units	OrigDataRate	OrigDataStartFrame	OrigNumFrames
150.000000	150.000000	4	33	mm	150.000000	3937	4500
Frame#	Time	L.ASIS			L.Heel.Bottom			L.Heel.Lateral			L.Heel.Top			L.Iliac.Crest			L.MT1			L.MT5			L.PSIS			L.Shank.Bottom.Lateral			L.Shank.Bottom.Medial			L.Shank.Top.Lateral			L.Shank.Top.Medial			L.Thigh.Bottom.Lateral			L.Thigh.Bottom.Medial			L.Thigh.Top.Lateral			L.Thigh.Top.Medial			R.ASIS			R.ASY			R.Heel.Bottom			R.Heel.Lateral			R.Heel.Top			R.Iliac.Crest			R.MT1			R.MT5			R.PSIS			R.Shank.Bottom.Lateral			R.Shank.Bottom.Medial			R.Shank.Top.Lateral			R.Shank.Top.Medial			R.Thigh.Bottom.Lateral			R.Thigh.Bottom.Medial			R.Thigh.Top.Lateral			R.Thigh.Top.Medial			
		X1	Y1	Z1	X2	Y2	Z2	X3	Y3	Z3	X4	Y4	Z4	X5	Y5	Z5	X6	Y6	Z6	X7	Y7	Z7	X8	Y8	Z8	X9	Y9	Z9	X10	Y10	Z10	X11	Y11	Z11	X12	Y12	Z12	X13	Y13	Z13	X14	Y14	Z14	X15	Y15	Z15	X16	Y16	Z16	X17	Y17	Z17	X18	Y18	Z18	X19	Y19	Z19	X20	Y20	Z20	X21	Y21	Z21	X22	Y22	Z22	X23	Y23	Z23	X24	Y24	Z24	X25	Y25	Z25	X26	Y26	Z26	X27	Y27	Z27	X28	Y28	Z28	X29	Y29	Z29	X30	Y30	Z30	X31	Y31	Z31	X32	Y32	Z32	X33	Y33	Z33	

3938	26.24666666666667	1981.257232104919	993.9006134953349	889.7391627071544	1347.236156910244	311.3229353444491	958.3619534188567	1366.508759826977	295.2558793778219	906.6870284413501	1391.895431499841	323.1586842690796	946.8851582126256	1942.248217171054	1086.983277642389	848.860231841106	1455.728892856866	121.98099016676	967.2813835556831	1409.980871028737	148.648071670389	864.8501063290727	1808.855090283896	1053.515551875918	948.4588716114575	1488.296722941875	328.5460640717898	873.0871866820544	1466.584938903402	358.8203106636779	914.8011602914501	1542.179214066379	386.6232377311965	859.8410005739228	1520.929178792331	417.2304527435867	898.6576934412184	1809.553402157336	649.0511520824558	835.1737650579623	1748.859443644757	678.3067148021153	860.0197512629378	1845.72196586876	749.9098453794683	810.0615609910639	1785.712499166144	777.8638224624478	830.1785983716258	1971.778501796087	1002.111627090903	1106.349113305812	2199.595713761034	113.4149639134603	1089.263871777241	2035.994682503592	73.05648436819189	1008.914404070673	2047.891753464568	75.13204272528851	1063.667018907312	2039.733791338558	114.2841898915319	1026.484738458904	1908.248540975947	1080.834062708686	1150.25215880003	2246.112963045308	92.75895062318824	1040.512563470663	2192.66016355204	49.90574441746995	1130.963384850646	1799.564276519156	1044.397706306196	1029.463482789728	2058.649094783023	203.5623341358361	1105.776889476691	2037.048393542247	211.744882638756	1059.566801791439	2039.950110252498	284.0086176101112	1126.16823318478	2015.635294119073	287.590086601577	1078.789047330195	1999.439426350538	659.6512692520331	1161.719282717757	1943.582604450583	632.0703852577287	1123.247034789241	1943.212412545833	752.8793141408263	1170.951832639873	1890.294306952364	727.0587026636176	1133.825843548989	
3939	26.25333333333333	1982.087807493563	992.3674675042325	890.1150564792634	1347.633339285195	323.6245737520087	960.6753445422039	1365.278409961795	307.2229008150694	908.553714920698	1392.53932754911	333.7248804769918	948.4744694391843	1940.441935272471	1085.810188669089	849.0728562332005	1448.233580995347	130.1709306325289	966.1145861956784	1401.927743521092	159.4933911403309	864.7728325530124	1809.508616921577	1050.690205545225	949.2869506530037	1487.89265563466	335.7672124190809	873.5794423950166	1467.992512843557	366.4559643520848	915.9357732954069	1544.206361268482	391.6305664519555	860.4529894430825	1524.763515229572	422.6645506451596	899.9411612397569	1814.983910778477	644.2732042409455	834.9612917036319	1754.159794697337	672.2056223485721	860.7577669265954	1848.970254280631	745.9317728669971	810.2654840819781	1788.756820514782	772.6137080306555	831.24937336834	1972.693242793422	999.413540450096	1107.322084340189	2194.771381097918	108.293372000324	1089.471759419949	2031.69977213047	69.62870056021148	1006.938422389563	2042.952776407325	71.22054824616774	1061.882885190962	2035.617627981828	110.6823127700992	1024.926626835711	1909.23033792489	1077.331319043428	1151.292411148255	2241.562534550234	87.36637339822693	1040.825039886161	2186.43543543988	45.38602117789952	1130.79852003412	1800.258578317948	1040.950779430921	1030.171235025541	2054.014392280717	198.9232057113536	1105.019009828643	2032.891584066814	207.3576088320344	1058.673862900365	2035.326222841615	279.325822645478	1125.636677805212	2011.620431435746	283.2345558618025	1077.997308661603	1997.445351815948	655.6153535682097	1163.003145102752	1941.422431783691	628.6869630105012	1124.330213745103	1942.306345275596	749.5311536051825	1172.010976554144	1889.200010275236	724.3692026314193	1134.765637730195	
3940	26.26	1982.793412665962	990.3109314603572	890.4947967178766	1349.773148857804	335.5836238820699	963.3673088316832	1365.714940340058	319.1103418834163	910.7380806934577	1394.835533703849	343.9096726857956	950.3973898120097	1938.69469389733	1083.936186675664	849.2451596476083	1441.909390777676	138.269155195695	964.5015418909369	1395.126132138057	170.766050169755	864.50126292202	1810.038824828868	1047.234218725826	950.0002352679237	1488.756360097033	342.694005375825	874.1500111381513	1470.753869561837	373.6555660033613	917.1757628397818	1547.367264387102	396.2603658939603	861.0709111887995	1529.782447067432	427.5831299312136	901.2610810936343	1820.521150977744	638.9037643681334	834.6720262940336	1759.754568024576	665.3757339673689	861.8200602820068	1852.037838724215	741.4190197771611	810.4158946461201	1791.802669173426	766.6965637821631	832.710601453195	1973.583129190684	996.3611282532318	1108.327077662229	2187.411455888067	102.9915232083029	1088.895346239483	2024.60472534129	65.85127010101422	1004.631082088824	2035.272478098136	67.32862883798587	1059.703310138398	2028.856424909815	106.8405331750899	1022.708256926237	1910.110359874603	1073.362905417812	1152.392370192158	2234.339609625582	81.32613217394847	1040.45095712974	2177.480629855114	41.18747978616846	1130.330118825663	1800.863416299752	1037.068084698814	1030.84122040927	2047.390893343518	194.1938584804275	1103.650636201802	2026.78101092621	203.0855496389432	1057.211198913844	2029.278111277622	274.613393554365	1124.644265957094	2006.215178665554	279.067670752408	1076.75811076959	1995.602075881608	651.5332822134418	1164.214558377799	1939.368683367649	625.1660712438834	1125.522300850314	1941.473636286108	746.087603326718	1173.067214694718	1888.146017247127	721.4853010023674	1135.829068184494	
3941	26.26666666666667	1983.346019820897	987.7397479022985	890.8879195501056	1353.702275784447	347.1007625179408	966.3561522345387	1367.920636843637	330.8327305194504	913.1808951213031	1398.835033062825	353.6214509165683	952.6091634127177	1937.08964204702	1081.349111126691	849.3745646254735	1436.80095631862	146.2297073635729	962.4382725151811	1389.756046554695	182.4219524956264	864.0114180010517	1810.405088827047	1043.145277226929	950.6079907489471	1490.973150619114	349.25355246254	874.7827104438468	1474.914519651215	380.35921378429	918.4682814240821	1551.724798715847	400.4528059899185	861.6723211091766	1536.020437783883	431.9344199082665	902.5605758577357	1826.181867105329	633.0240609211353	834.321490882142	1765.639632550991	657.9259470820399	863.1349978536754	1854.985905483574	736.4172155289974	810.5159589212572	1794.893658433936	760.1853517695315	834.4709441701963	1974.405399273083	992.9795028728064	1109.297544994122	2177.741570236133	97.74615818937312	1087.454573764342	2014.945065794684	61.69593279322937	1002.101150006675	2025.132679975846	63.51083067404899	1057.212333529741	2019.650510818701	102.7471485100816	1019.877106180876	1910.924315417826	1068.969286400549	1153.524490494703	2224.679657211207	74.93031358788741	1039.337507112877	2166.178149281514	37.54361754092918	1129.548654435342	1801.335315766088	1032.781928518578	1031.492011839802	2039.015072145013	189.4511076399036	1101.704078017195	2018.895435128606	198.9933592655966	1055.233959036217	2022.028403873615	269.9293920007742	1123.233442495158	1999.56872896105	275.1238112732733	1075.150926917127	1993.849650838537	647.3518759508154	1165.339640474883	1937.393423027223	621.4686923701247	1126.732924728912	1940.620654160753	742.477313652843	1174.108848395197	1887.077111584274	718.3471096777594	1136.934121925362	
